<svg xmlns="http://www.w3.org/2000/svg" viewBox="0 0 760 120" role="img" aria-labelledby="title desc">
  <title id="title">FrameEdit logo concept 03</title>
  <desc id="desc">Horizontal FrameEdit wordmark with an offset frame and slide mark.</desc>
  <g fill="none" fill-rule="evenodd">
    <path fill="#121513" d="M22 31c0-5 4-9 9-9h72c5 0 9 4 9 9v58c0 5-4 9-9 9H31c-5 0-9-4-9-9V31Zm12 4v50h66V35H34Z"/>
    <path fill="#1769ff" d="M48 48h72c5 0 9 4 9 9v26c0 5-4 9-9 9H48V48Zm12 12v20h57V60H60Z"/>
    <text x="160" y="80" fill="#121513" font-family="Inter, ui-sans-serif, system-ui, -apple-system, BlinkMacSystemFont, 'Segoe UI', sans-serif" font-size="68" font-weight="730" letter-spacing="0">FrameEdit</text>
  </g>
</svg>
