<?xml version="1.0" standalone="no"?>
<!DOCTYPE svg PUBLIC "-//W3C//DTD SVG 20010904//EN"
 "http://www.w3.org/TR/2001/REC-SVG-20010904/DTD/svg10.dtd">
<svg version="1.0" xmlns="http://www.w3.org/2000/svg"
 width="2752.000000pt" height="1536.000000pt" viewBox="0 0 2752.000000 1536.000000"
 preserveAspectRatio="xMidYMid meet">
<metadata>
Created by potrace 1.16, written by Peter Selinger 2001-2019
</metadata>
<g transform="translate(0.000000,1536.000000) scale(0.100000,-0.100000)"
fill="#000000" stroke="none">
<path d="M6745 10918 c-326 -29 -711 -162 -965 -333 -243 -163 -475 -391 -627
-615 -142 -210 -263 -485 -324 -735 -61 -254 -59 -183 -59 -2169 0 -1198 -4
-1849 -11 -1916 -13 -127 -56 -267 -107 -346 -50 -76 -133 -151 -210 -189 -34
-16 -61 -33 -62 -37 0 -10 5391 -11 5508 -1 l84 6 -76 40 c-107 55 -175 127
-231 241 -66 136 -76 196 -82 514 l-5 272 -35 0 -35 0 4 -302 c4 -296 5 -305
32 -393 28 -92 75 -189 127 -260 l30 -40 -2522 -3 c-1387 -1 -2524 0 -2527 3
-2 2 12 26 32 54 45 61 97 172 128 272 l23 74 5 1920 c5 1758 7 1929 23 2025
81 486 275 883 597 1214 165 170 326 291 540 404 440 235 1005 292 1542 156
160 -40 323 -101 504 -188 258 -126 439 -247 709 -476 174 -148 439 -335 690
-486 178 -107 615 -326 815 -409 256 -105 661 -235 979 -314 278 -69 342 -89
251 -77 -25 3 -110 13 -190 21 -488 53 -1060 191 -1490 360 -149 58 -440 205
-612 309 -277 167 -412 264 -704 509 -410 344 -901 556 -1385 598 -229 19
-494 -14 -729 -91 -553 -181 -996 -622 -1188 -1181 -46 -134 -85 -296 -104
-429 -10 -76 -13 -489 -13 -2065 l0 -1970 2095 0 2095 0 3 383 2 382 -40 0
-40 0 0 -345 0 -345 -2017 2 -2018 3 0 1935 c0 1812 1 1942 18 2048 49 309
142 551 306 798 266 400 675 674 1141 765 161 31 352 42 490 30 269 -25 536
-103 805 -236 511 -251 927 -658 1125 -1097 32 -72 37 -77 60 -71 14 3 31 9
37 12 22 12 -94 246 -209 420 l-22 34 74 -50 c260 -174 661 -375 976 -488 342
-123 877 -242 1314 -294 244 -29 412 -40 731 -48 l276 -6 7 33 c3 18 4 35 2
38 -3 2 -40 8 -83 13 -617 68 -1303 242 -1878 476 -579 235 -1174 590 -1561
929 -322 284 -729 509 -1130 625 -297 86 -589 114 -889 87z"/>
<path d="M20390 10923 c-263 -19 -595 -105 -859 -222 -268 -119 -560 -309
-804 -524 -149 -130 -449 -341 -682 -479 -548 -324 -1089 -544 -1785 -727
-262 -69 -688 -147 -905 -166 -114 -10 -117 -11 -113 -48 l3 -32 105 -3 c142
-4 601 15 780 33 631 64 1199 204 1710 421 237 100 590 294 768 421 14 10 -1
-19 -41 -79 -122 -183 -219 -406 -278 -640 -38 -150 -37 -165 1 -173 37 -8 50
0 50 29 0 13 11 68 26 122 112 434 313 753 677 1072 400 351 879 564 1378 613
276 26 669 -51 932 -182 299 -151 517 -346 703 -629 164 -250 274 -572 304
-891 8 -79 10 -696 8 -1994 l-3 -1880 -2017 -3 -2018 -2 0 345 0 345 -40 0
-40 0 2 -382 3 -383 2095 0 2095 0 0 1970 c0 2153 3 2053 -60 2300 -98 394
-265 689 -537 951 -273 264 -606 429 -998 496 -176 30 -439 30 -600 0 -487
-91 -859 -273 -1295 -637 -583 -485 -1137 -770 -1865 -959 -365 -95 -627 -141
-1028 -180 -32 -3 -50 -1 -47 4 4 6 13 10 22 10 20 0 387 92 523 131 828 239
1666 674 2240 1163 703 600 1467 825 2240 660 356 -77 694 -264 984 -545 338
-326 539 -715 628 -1209 l22 -125 6 -1925 c3 -1059 9 -1936 14 -1950 4 -14 17
-54 28 -90 27 -84 77 -184 122 -243 20 -26 36 -49 36 -52 0 -3 -1136 -5 -2525
-5 -1389 0 -2525 3 -2525 8 0 4 15 28 33 53 54 76 107 201 128 301 16 78 19
136 19 366 l0 272 -34 0 -34 0 -4 -287 c-5 -278 -6 -291 -32 -378 -55 -180
-140 -295 -271 -362 -41 -21 -75 -41 -75 -46 0 -4 1258 -7 2795 -7 1537 0
2795 4 2795 9 0 4 -19 16 -42 25 -24 9 -70 36 -103 61 -135 101 -209 239 -240
447 -13 83 -15 374 -15 1945 0 1975 0 1936 -50 2149 -191 818 -816 1461 -1609
1658 -217 54 -474 76 -701 59z"/>
<path d="M21030 9185 c-74 -38 -375 -145 -408 -145 -7 0 -12 -13 -12 -30 0
-25 4 -30 24 -30 38 0 89 -41 114 -92 39 -79 43 -202 40 -1288 -3 -933 -5
-1020 -21 -1075 -24 -81 -62 -126 -121 -145 -37 -12 -46 -19 -44 -35 2 -11 9
-20 16 -19 6 1 167 2 357 3 328 1 345 2 345 19 0 13 -12 22 -38 30 -55 17 -98
66 -119 137 -16 56 -18 153 -23 1384 -3 870 -8 1325 -15 1327 -5 1 -48 -17
-95 -41z"/>
<path d="M6610 9126 c0 -22 4 -26 30 -26 37 0 95 -50 116 -99 44 -103 46 -143
51 -721 l5 -556 86 18 c49 10 131 18 189 18 l102 0 3 48 3 47 225 0 c201 -1
234 -3 310 -23 300 -80 506 -290 592 -603 20 -74 23 -107 23 -274 0 -176 -2
-197 -27 -287 -95 -341 -329 -591 -660 -704 -220 -75 -527 -70 -763 12 -210
73 -394 242 -456 420 -74 209 -64 416 28 604 47 97 160 212 252 258 35 18 71
32 79 32 12 0 13 -45 9 -317 -2 -178 -10 -347 -16 -383 -24 -128 -71 -195
-153 -215 -18 -5 -28 -14 -28 -26 0 -18 14 -19 390 -19 381 0 390 0 390 20 0
14 -11 22 -42 31 -25 6 -56 25 -75 46 -65 68 -83 199 -83 611 0 324 -10 299
102 261 194 -65 331 -252 315 -431 -7 -74 6 -76 74 -8 125 125 143 322 47 502
-42 80 -147 177 -240 222 -278 136 -688 94 -944 -95 -163 -120 -281 -305 -330
-514 -28 -116 -25 -312 4 -423 88 -331 336 -575 702 -691 305 -97 728 -85
1054 30 162 56 276 119 389 212 363 300 495 757 342 1187 -106 296 -358 511
-699 595 l-90 22 72 22 c235 71 413 240 463 441 17 68 17 239 0 300 -43 155
-152 291 -288 363 -93 48 -137 64 -253 89 -88 19 -137 21 -697 25 l-603 5 0
-26z m1083 -85 c101 -27 166 -63 231 -128 99 -99 146 -223 146 -391 0 -284
-131 -482 -370 -557 -43 -14 -104 -19 -282 -23 l-228 -4 0 559 c0 308 3 563 8
568 4 4 99 5 212 2 162 -4 221 -10 283 -26z"/>
<path d="M12622 9128 c2 -15 15 -25 45 -35 56 -19 97 -68 125 -150 l23 -68 3
-1093 c2 -951 1 -1105 -13 -1184 -24 -138 -70 -207 -149 -222 -27 -5 -36 -12
-36 -26 0 -20 10 -20 400 -20 378 0 400 1 400 18 0 13 -13 21 -43 29 -55 15
-112 72 -132 132 -8 25 -19 80 -25 121 -14 110 -13 2131 1 2223 23 147 66 216
150 241 32 10 44 18 44 32 0 18 -15 19 -398 22 l-398 2 3 -22z"/>
<path d="M9170 8807 c-129 -68 -157 -230 -58 -341 124 -142 353 -76 383 110
14 88 -41 191 -126 234 -55 28 -143 27 -199 -3z"/>
<path d="M20010 8819 c-77 -32 -140 -124 -139 -204 0 -85 52 -170 123 -204 51
-25 141 -28 194 -5 157 65 175 290 31 390 -35 24 -53 29 -113 31 -39 2 -82 -2
-96 -8z"/>
<path d="M10795 8139 c-88 -17 -172 -49 -232 -88 -70 -45 -186 -152 -210 -192
-10 -16 -21 -29 -25 -29 -4 0 -8 70 -8 155 0 185 9 179 -150 109 -58 -26 -163
-66 -235 -89 -106 -35 -131 -46 -133 -63 -2 -16 4 -22 28 -27 48 -11 96 -59
122 -123 22 -56 22 -65 26 -555 3 -483 -3 -650 -29 -740 -13 -49 -72 -114
-110 -122 -20 -5 -29 -13 -29 -26 0 -18 11 -19 345 -19 331 0 345 1 345 19 0
12 -9 20 -29 24 -46 9 -98 69 -118 135 -16 52 -18 109 -18 617 l0 560 24 50
c35 71 126 157 208 196 58 28 82 34 159 37 185 9 269 -52 330 -238 16 -49 18
-106 22 -565 4 -535 -2 -634 -39 -706 -21 -41 -60 -76 -96 -85 -14 -4 -23 -14
-23 -25 0 -18 14 -19 335 -20 184 -1 341 -2 348 -3 6 -1 13 9 15 20 3 18 -4
23 -33 28 -48 9 -97 61 -120 127 -17 50 -19 100 -26 614 -4 336 -11 578 -17
606 -41 177 -125 309 -234 365 -103 53 -275 77 -393 53z"/>
<path d="M14115 8135 c-139 -26 -237 -77 -332 -172 -89 -91 -129 -204 -121
-348 4 -68 10 -94 40 -156 69 -145 139 -200 470 -370 224 -116 290 -158 338
-219 75 -95 90 -234 36 -344 -29 -58 -69 -95 -144 -129 -66 -30 -221 -29 -306
2 -171 61 -287 201 -362 434 -27 82 -30 88 -54 85 l-25 -3 -8 -240 c-6 -217
-6 -241 9 -252 30 -22 176 -74 284 -101 93 -23 125 -26 280 -27 199 0 254 10
380 72 105 51 206 153 243 247 67 166 50 356 -43 491 -68 99 -209 192 -492
324 -121 56 -226 122 -277 172 -101 100 -109 262 -19 364 92 104 269 131 417
62 62 -28 159 -128 203 -207 20 -36 48 -102 63 -148 21 -64 31 -82 43 -80 15
3 17 28 20 234 l2 231 -72 21 c-244 71 -410 87 -573 57z"/>
<path d="M16049 8139 c-156 -23 -308 -118 -432 -269 l-37 -45 0 158 0 157 -24
0 c-13 0 -61 -18 -107 -40 -46 -21 -142 -58 -214 -81 -71 -23 -140 -45 -152
-50 -32 -12 -30 -45 4 -54 47 -11 85 -47 112 -104 l26 -56 5 -500 c6 -512 1
-681 -21 -753 -16 -54 -61 -108 -104 -123 -22 -8 -35 -20 -35 -31 0 -17 19
-18 335 -18 184 0 338 0 343 0 4 -1 8 8 10 19 2 14 -4 21 -28 26 -45 10 -95
65 -116 127 -16 47 -18 112 -21 612 l-4 559 30 62 c63 128 202 224 335 233
134 8 232 -41 288 -144 52 -98 53 -116 53 -709 0 -505 -2 -555 -18 -609 -21
-69 -69 -123 -116 -132 -25 -5 -31 -12 -31 -31 0 -19 4 -24 16 -19 9 3 166 6
350 6 321 0 334 1 334 19 0 13 -10 21 -33 25 -47 9 -101 69 -123 136 -16 50
-18 110 -22 621 l-3 566 35 61 c82 138 245 223 402 209 164 -16 245 -113 275
-332 7 -52 9 -257 7 -575 -5 -570 -6 -578 -84 -650 -24 -22 -53 -40 -64 -40
-13 0 -20 -7 -20 -20 0 -20 7 -20 350 -20 336 0 350 1 350 19 0 12 -9 20 -29
24 -35 7 -87 50 -107 88 -32 62 -36 132 -43 679 -7 528 -9 559 -29 635 -30
109 -67 179 -129 242 -116 119 -310 159 -519 108 -134 -34 -265 -119 -361
-236 l-56 -68 -34 69 c-94 195 -294 286 -544 249z"/>
<path d="M18605 8136 c-149 -29 -253 -80 -350 -173 -132 -126 -148 -304 -34
-381 29 -21 43 -23 103 -20 62 3 71 7 96 35 25 27 29 42 34 120 12 161 48 252
118 300 48 32 151 56 207 48 64 -9 147 -50 176 -89 57 -75 95 -214 95 -351 0
-66 -3 -77 -32 -121 -44 -65 -125 -107 -370 -193 -215 -76 -276 -102 -367
-161 -89 -58 -149 -124 -190 -210 -35 -74 -36 -77 -36 -200 0 -107 4 -133 24
-183 30 -76 117 -169 193 -208 243 -122 579 -46 741 168 42 56 57 60 57 14 0
-15 15 -57 33 -92 71 -140 237 -186 400 -109 48 23 119 92 139 135 18 39 -4
55 -43 32 -65 -37 -135 -11 -168 62 -14 31 -17 109 -22 576 -4 373 -10 555
-19 590 -48 196 -187 340 -382 395 -95 27 -303 35 -403 16z m424 -1461 c-30
-64 -96 -128 -170 -166 -53 -27 -79 -33 -146 -37 -74 -4 -88 -2 -136 22 -62
30 -112 87 -138 157 -26 69 -26 220 0 289 48 125 133 199 372 321 88 45 176
94 197 109 l37 27 3 -339 c2 -327 2 -339 -19 -383z"/>
<path d="M9385 8122 c-62 -37 -247 -107 -380 -143 -68 -19 -88 -51 -38 -64 71
-18 123 -92 143 -206 8 -44 10 -232 7 -594 -3 -435 -6 -540 -19 -587 -23 -88
-65 -141 -119 -153 -21 -5 -29 -13 -29 -28 l0 -22 345 3 c336 2 345 3 345 22
0 13 -7 20 -20 20 -28 0 -91 59 -111 105 -34 77 -39 192 -39 937 l0 728 -27 0
c-16 0 -41 -8 -58 -18z"/>
<path d="M20180 8110 c-70 -37 -155 -70 -302 -115 -108 -34 -118 -39 -118 -61
0 -18 5 -24 23 -24 40 0 92 -45 118 -102 l24 -53 0 -595 c0 -540 -2 -600 -18
-652 -21 -70 -55 -111 -107 -132 -22 -9 -40 -23 -40 -31 0 -13 45 -15 350 -15
343 0 350 0 350 20 0 13 -7 20 -18 20 -37 0 -98 56 -123 111 l-24 54 -3 803
-3 802 -27 0 c-15 -1 -52 -14 -82 -30z"/>
<path d="M14550 5672 c-19 -8 -64 -25 -100 -37 -35 -12 -65 -26 -67 -31 -2 -5
10 -17 26 -26 20 -11 32 -27 36 -50 3 -18 5 -221 3 -450 l-3 -417 -34 -35 -34
-35 143 -3 c81 -2 144 1 148 6 3 6 -1 12 -8 14 -8 3 -24 15 -37 28 -23 23 -23
26 -23 258 l0 235 32 37 c76 86 209 87 255 1 16 -28 18 -61 18 -269 l0 -237
-34 -35 -35 -36 137 0 c75 0 140 0 144 -1 4 0 9 4 11 10 2 6 -3 11 -10 11 -8
0 -25 11 -38 25 -24 25 -24 29 -28 268 -3 215 -6 247 -24 289 -59 137 -262
153 -390 30 l-38 -36 -1 234 c0 129 -3 242 -7 251 -6 14 -11 14 -42 1z"/>
<path d="M10380 5610 c0 -6 11 -15 24 -20 48 -18 51 -35 54 -350 2 -162 1
-359 -3 -438 l-7 -143 -36 -35 -35 -34 151 0 c84 0 155 0 159 -1 4 0 9 4 11
10 2 6 -3 11 -10 11 -16 0 -52 36 -61 62 -3 10 -7 107 -7 215 l-2 198 116 0
c130 0 162 -13 181 -73 5 -18 15 -32 22 -32 10 0 13 31 13 135 0 86 -4 135
-10 135 -6 0 -13 -8 -16 -17 -25 -82 -67 -103 -201 -103 -56 0 -104 3 -106 8
-3 4 -2 105 1 225 l5 218 146 -3 c142 -3 147 -4 189 -32 24 -17 58 -54 79 -88
20 -32 37 -57 39 -55 2 1 0 50 -4 107 l-7 105 -342 3 c-232 1 -343 -1 -343 -8z"/>
<path d="M13450 5562 c-18 -18 -30 -41 -30 -57 0 -93 113 -137 164 -63 39 55
4 133 -66 145 -32 5 -41 1 -68 -25z"/>
<path d="M15289 5561 c-21 -21 -29 -39 -29 -64 0 -97 131 -132 175 -46 51 97
-68 187 -146 110z"/>
<path d="M16999 5330 c-24 -16 -53 -36 -64 -44 -18 -14 -25 -14 -65 0 -70 25
-210 15 -275 -18 -61 -32 -87 -59 -114 -118 -45 -98 -9 -218 82 -275 15 -9 27
-20 27 -24 0 -3 -16 -15 -36 -26 -43 -23 -82 -71 -90 -111 -7 -38 25 -80 80
-105 l40 -18 -27 -10 c-16 -6 -32 -11 -36 -11 -4 0 -26 -16 -48 -35 -144 -123
-26 -270 227 -282 192 -10 348 56 405 170 46 94 25 191 -52 234 -54 31 -109
41 -297 57 -90 7 -169 17 -175 20 -20 13 -11 52 17 79 26 25 32 27 58 16 83
-32 240 -2 316 61 102 84 105 250 6 340 l-30 27 27 7 c28 7 101 -9 110 -24 18
-29 65 17 65 63 0 44 -15 57 -65 57 -29 0 -54 -9 -86 -30z m-179 -85 c90 -47
105 -266 25 -354 -29 -31 -39 -36 -78 -36 -54 0 -92 25 -124 81 -59 103 -33
271 47 311 34 17 95 16 130 -2z m20 -674 c108 -12 156 -33 170 -77 22 -67 -16
-134 -99 -172 -45 -21 -71 -26 -136 -27 -92 0 -142 15 -184 54 -57 53 -61 162
-9 211 25 23 109 26 258 11z"/>
<path d="M11299 5300 c-9 -5 -54 -20 -100 -33 -88 -26 -106 -40 -65 -51 14 -3
29 -14 34 -24 5 -9 12 -116 14 -237 6 -272 18 -309 111 -357 95 -48 215 -29
298 49 53 50 55 49 61 -37 3 -31 6 -35 28 -32 46 5 180 44 180 53 0 4 -14 16
-30 26 -17 10 -33 27 -35 38 -3 11 -7 150 -9 308 -2 159 -6 291 -9 293 -4 5
-205 -60 -214 -70 -3 -3 7 -8 21 -12 49 -12 56 -43 56 -263 l0 -201 -42 -44
c-35 -36 -52 -45 -90 -51 -86 -13 -151 27 -169 102 -5 21 -9 154 -9 296 0 141
-3 257 -7 257 -5 0 -15 -5 -24 -10z"/>
<path d="M12055 5269 c-54 -20 -101 -41 -103 -48 -2 -6 1 -11 8 -11 6 0 22
-11 35 -25 l25 -24 0 -251 0 -252 -30 -30 c-16 -16 -30 -33 -30 -36 0 -8 279
-6 287 2 3 3 -5 10 -19 16 -49 23 -53 40 -56 260 l-3 205 28 55 c22 44 35 57
61 64 29 8 39 5 80 -24 59 -42 90 -35 111 27 13 37 13 44 -2 67 -23 35 -83 52
-130 37 -49 -17 -84 -46 -118 -100 l-29 -46 -1 60 c-1 97 1 96 -114 54z"/>
<path d="M12940 5301 c-56 -12 -123 -50 -157 -89 l-33 -37 0 63 c0 36 -4 62
-10 62 -16 0 -194 -62 -204 -71 -5 -5 2 -13 17 -18 49 -19 52 -37 52 -291 0
-129 -3 -248 -8 -263 -4 -15 -19 -33 -32 -39 -14 -6 -25 -15 -25 -19 0 -10
280 -17 286 -7 2 3 -9 16 -26 28 -45 32 -52 75 -48 305 3 188 5 206 24 232 76
102 236 95 272 -12 16 -48 18 -457 3 -498 -5 -14 -19 -28 -31 -32 -50 -16 -6
-26 123 -28 97 -1 137 1 137 9 0 7 -9 14 -20 17 -42 11 -50 60 -50 304 l0 228
-28 54 c-21 43 -37 60 -72 78 -51 26 -118 35 -170 24z"/>
<path d="M13963 5300 c-116 -24 -183 -93 -183 -190 0 -95 45 -144 206 -221
140 -66 174 -99 174 -166 0 -75 -66 -122 -156 -109 -93 12 -157 66 -194 163
-31 81 -41 67 -38 -53 l3 -108 95 -24 c193 -47 338 -10 396 100 8 15 14 55 14
90 0 108 -35 144 -221 231 -147 69 -183 110 -159 181 28 85 161 99 244 25 20
-17 42 -51 52 -79 10 -28 22 -49 28 -47 5 2 9 41 8 88 l0 84 -54 16 c-69 22
-163 30 -215 19z"/>
<path d="M15750 5287 c-25 -11 -70 -27 -100 -37 -30 -10 -55 -21 -57 -26 -2
-5 10 -15 27 -22 18 -8 33 -24 38 -40 4 -15 7 -133 7 -262 0 -246 -4 -272 -45
-285 -51 -16 -10 -25 120 -25 77 0 140 4 140 9 0 5 -11 16 -25 25 -37 24 -45
74 -45 284 0 225 6 247 79 293 83 53 177 32 217 -47 17 -35 19 -62 19 -266 l0
-227 -32 -33 c-18 -19 -33 -36 -33 -38 0 -5 273 0 278 5 2 1 -10 16 -26 32
l-29 29 -5 240 c-4 239 -4 241 -32 297 -21 44 -38 63 -73 83 -93 55 -254 24
-330 -64 l-32 -37 -1 62 c0 34 -3 64 -7 66 -5 3 -28 -5 -53 -16z"/>
<path d="M13468 5263 c-98 -36 -120 -55 -73 -67 44 -11 46 -31 43 -297 l-3
-251 -30 -24 c-16 -12 -27 -25 -25 -28 3 -2 67 -6 143 -8 105 -2 137 0 137 10
0 6 -6 12 -14 12 -8 0 -24 12 -35 26 -20 26 -21 38 -21 345 0 249 -3 319 -12
318 -7 0 -57 -16 -110 -36z"/>
<path d="M15390 5291 c-8 -5 -52 -21 -97 -36 -46 -15 -83 -32 -83 -37 0 -5 10
-12 23 -17 48 -19 52 -33 55 -220 2 -97 1 -209 -3 -250 -6 -64 -11 -79 -36
-104 -16 -15 -29 -32 -29 -35 0 -11 274 -4 278 7 2 5 -6 15 -18 21 -45 24 -50
59 -50 380 0 311 0 313 -40 291z"/>
</g>
</svg>
